<svg width="46" height="48" viewBox="0 0 46 48" fill="none" xmlns="http://www.w3.org/2000/svg">
<path d="M45.8241 32.2952C45.4926 31.3148 44.7014 30.6029 43.5961 30.2908C42.4114 29.9562 40.8725 30.0625 39.0216 30.6064L30.6417 33.0689C30.609 33.0033 30.5743 32.9387 30.5377 32.8751C30.0647 32.0546 29.3039 31.4684 28.3953 31.2246L22.4308 29.6236C18.064 26.56 15.7235 27.441 12.2825 29.1264C10.6476 29.9271 9.02611 30.7003 7.49279 31.4262L7.18053 30.6752C6.74538 29.6284 5.5407 29.1305 4.49501 29.5654L1.27064 30.9066C0.755848 31.1206 0.371329 31.5066 0.158796 32.0227C-0.0537372 32.5388 -0.0529611 33.0839 0.161318 33.5994L5.6216 46.7328C5.94996 47.5226 6.71628 48 7.52189 48C7.79142 47.9999 8.05828 47.9464 8.30712 47.8427L11.5315 46.5015C12.0463 46.2875 12.4308 45.9015 12.6433 45.3854C12.8559 44.8693 12.855 44.3242 12.6407 43.8088L12.2851 42.9535L14.3629 41.9415C15.1241 41.571 15.8891 41.5056 16.7018 41.742L23.4089 43.6927C23.9056 43.8371 24.4185 43.8989 24.9389 43.8989C26.7267 43.8988 28.5987 43.1692 30.1723 42.5557C30.3106 42.5018 43.1667 37.5389 43.1667 37.5389C45.2178 36.7468 46.4843 34.2477 45.8241 32.2952ZM11.388 44.8663C11.3118 45.0514 11.1955 45.1682 11.0109 45.2449L7.78632 46.5861C7.43177 46.7337 7.023 46.5648 6.87527 46.2096L1.41498 33.0762C1.33816 32.8914 1.33786 32.7264 1.41411 32.5414C1.49035 32.3564 1.60666 32.2396 1.79135 32.1628L5.01582 30.8215C5.10022 30.7863 5.19075 30.7682 5.28219 30.7682C5.41999 30.7682 5.55472 30.809 5.66943 30.8855C5.78414 30.962 5.87371 31.0707 5.92687 31.1981L11.3871 44.3314C11.4639 44.5163 11.4642 44.6813 11.388 44.8663ZM42.6786 36.2691C42.6786 36.2691 29.8197 41.2331 29.6799 41.2876C27.8393 42.0052 25.5485 42.8981 23.7877 42.386L17.0806 40.4353C15.9459 40.1052 14.8317 40.2003 13.7692 40.7178L11.7622 41.6953L8.01534 32.6832C9.57 31.9473 11.2165 31.1625 12.8791 30.3484C16.0781 28.7814 17.9252 28.0902 21.7456 30.804C21.8113 30.8506 21.8848 30.8852 21.9626 30.9062L28.0438 32.5385C28.6019 32.6883 29.07 33.0494 29.3616 33.5553C29.6532 34.0612 29.7313 34.6477 29.5819 35.2067C29.2716 36.3673 28.0763 37.0584 26.918 36.7473L18.8361 34.5781C18.6624 34.5321 18.4775 34.557 18.3221 34.6472C18.1666 34.7375 18.0532 34.8858 18.0068 35.0596C17.9603 35.2335 17.9844 35.4187 18.074 35.5747C18.1636 35.7308 18.3113 35.8448 18.4846 35.892L26.5665 38.0611C28.4483 38.5666 30.3894 37.4437 30.8936 35.5588C30.9968 35.1748 31.0343 34.7762 31.0048 34.3797L39.4039 31.9115C42.1701 31.0987 44.0894 31.4052 44.5378 32.7314C44.9636 33.9904 44.0425 35.7427 42.6786 36.2691ZM27.2149 25.1969C27.2784 25.2793 27.3598 25.346 27.453 25.3919C27.5463 25.4378 27.6487 25.4616 27.7526 25.4616C27.8565 25.4616 27.959 25.4377 28.0522 25.3918C28.1454 25.3459 28.2268 25.2792 28.2903 25.1968L36.6085 14.3923C36.686 14.2917 36.7338 14.1713 36.7465 14.0449C36.7591 13.9184 36.7362 13.7909 36.6801 13.6769C36.6242 13.5628 36.5374 13.4668 36.4298 13.3996C36.3221 13.3324 36.1977 13.2968 36.0709 13.2968H32.9002V0.680158C32.9002 0.499769 32.8287 0.326768 32.7013 0.199214C32.574 0.0716593 32.4013 0 32.2212 0H23.2838C23.1037 0 22.931 0.0716593 22.8036 0.199214C22.6763 0.326768 22.6047 0.499769 22.6047 0.680158V13.2969H19.4341C19.3072 13.2969 19.1829 13.3325 19.0752 13.3997C18.9675 13.4669 18.8808 13.5629 18.8248 13.677C18.7688 13.791 18.7458 13.9185 18.7585 14.045C18.7711 14.1714 18.8189 14.2918 18.8964 14.3924L27.2149 25.1969ZM23.2838 14.6572C23.4639 14.6572 23.6366 14.5855 23.7639 14.458C23.8912 14.3304 23.9628 14.1574 23.9628 13.977V1.36032H31.5422V13.977C31.5422 14.1574 31.6137 14.3304 31.7411 14.458C31.8684 14.5855 32.0411 14.6572 32.2212 14.6572H34.6897L27.7525 23.6678L20.8151 14.6572H23.2838Z" fill="#0284C7"/>
</svg>
